<?xml version="1.0" encoding="UTF-8"?>
<svg xmlns="http://www.w3.org/2000/svg" xmlns:xlink="http://www.w3.org/1999/xlink" width="1280" height="720" viewBox="0 0 1280 720">
<defs>
<g>
<g id="glyph-0-0">
<path d="M 0.09375 0 L 0.09375 -0.140625 L 0.125 -0.140625 C 0.195312 -0.140625 0.257812 -0.148438 0.3125 -0.171875 C 0.363281 -0.203125 0.390625 -0.269531 0.390625 -0.375 L 0.390625 -1.421875 C 0.390625 -1.515625 0.363281 -1.570312 0.3125 -1.59375 C 0.257812 -1.625 0.195312 -1.640625 0.125 -1.640625 L 0.109375 -1.640625 L 0.109375 -1.78125 L 0.65625 -1.78125 L 0.6875 -1.515625 L 0.703125 -1.515625 C 0.773438 -1.640625 0.851562 -1.71875 0.9375 -1.75 C 1.019531 -1.789062 1.117188 -1.8125 1.234375 -1.8125 C 1.398438 -1.8125 1.53125 -1.757812 1.625 -1.65625 C 1.726562 -1.550781 1.78125 -1.390625 1.78125 -1.171875 L 1.78125 -0.375 C 1.78125 -0.269531 1.800781 -0.203125 1.84375 -0.171875 C 1.894531 -0.148438 1.957031 -0.140625 2.03125 -0.140625 L 2.046875 -0.140625 L 2.046875 0 L 1.46875 0 L 1.46875 -1.140625 C 1.46875 -1.285156 1.441406 -1.398438 1.390625 -1.484375 C 1.335938 -1.566406 1.242188 -1.609375 1.109375 -1.609375 C 1.003906 -1.609375 0.921875 -1.582031 0.859375 -1.53125 C 0.804688 -1.476562 0.765625 -1.410156 0.734375 -1.328125 C 0.710938 -1.242188 0.703125 -1.15625 0.703125 -1.0625 L 0.703125 -0.359375 C 0.703125 -0.265625 0.726562 -0.203125 0.78125 -0.171875 C 0.832031 -0.148438 0.894531 -0.140625 0.96875 -0.140625 L 0.984375 -0.140625 L 0.984375 0 Z "/>
</g>
<g id="glyph-0-1">
</g>
<g id="glyph-0-2">
<path d="M 0.21875 -1.421875 L 0.21875 -1.609375 L 1.640625 -1.609375 L 1.640625 -1.421875 Z M 0.21875 -0.765625 L 0.21875 -0.953125 L 1.640625 -0.953125 L 1.640625 -0.765625 Z "/>
</g>
<g id="glyph-0-3">
<path d="M 0.3125 0 L 0.3125 -0.140625 L 0.546875 -0.140625 C 0.617188 -0.140625 0.679688 -0.148438 0.734375 -0.171875 C 0.785156 -0.203125 0.8125 -0.269531 0.8125 -0.375 L 0.8125 -2.125 C 0.726562 -2.019531 0.648438 -1.9375 0.578125 -1.875 C 0.515625 -1.8125 0.453125 -1.78125 0.390625 -1.78125 C 0.335938 -1.78125 0.296875 -1.796875 0.265625 -1.828125 C 0.234375 -1.859375 0.21875 -1.898438 0.21875 -1.953125 C 0.28125 -1.972656 0.347656 -2 0.421875 -2.03125 C 0.503906 -2.070312 0.597656 -2.132812 0.703125 -2.21875 L 0.9375 -2.390625 L 1.15625 -2.390625 L 1.15625 -0.375 C 1.15625 -0.269531 1.179688 -0.203125 1.234375 -0.171875 C 1.285156 -0.148438 1.347656 -0.140625 1.421875 -0.140625 L 1.59375 -0.140625 L 1.59375 0 Z "/>
</g>
<g id="glyph-0-4">
<path d="M 0.9375 0.03125 C 0.75 0.03125 0.597656 -0.015625 0.484375 -0.109375 C 0.367188 -0.210938 0.285156 -0.359375 0.234375 -0.546875 C 0.179688 -0.734375 0.15625 -0.945312 0.15625 -1.1875 C 0.15625 -1.4375 0.179688 -1.648438 0.234375 -1.828125 C 0.285156 -2.015625 0.367188 -2.15625 0.484375 -2.25 C 0.597656 -2.351562 0.75 -2.40625 0.9375 -2.40625 C 1.101562 -2.40625 1.242188 -2.351562 1.359375 -2.25 C 1.484375 -2.15625 1.570312 -2.015625 1.625 -1.828125 C 1.675781 -1.648438 1.703125 -1.4375 1.703125 -1.1875 C 1.703125 -0.945312 1.671875 -0.734375 1.609375 -0.546875 C 1.554688 -0.359375 1.472656 -0.210938 1.359375 -0.109375 C 1.242188 -0.015625 1.101562 0.03125 0.9375 0.03125 Z M 0.9375 -0.140625 C 1.09375 -0.140625 1.203125 -0.234375 1.265625 -0.421875 C 1.328125 -0.609375 1.359375 -0.863281 1.359375 -1.1875 C 1.359375 -1.519531 1.328125 -1.773438 1.265625 -1.953125 C 1.203125 -2.140625 1.09375 -2.234375 0.9375 -2.234375 C 0.769531 -2.234375 0.65625 -2.140625 0.59375 -1.953125 C 0.53125 -1.773438 0.5 -1.519531 0.5 -1.1875 C 0.5 -0.863281 0.53125 -0.609375 0.59375 -0.421875 C 0.65625 -0.234375 0.769531 -0.140625 0.9375 -0.140625 Z "/>
</g>
<g id="glyph-0-5">
<path d="M 0.421875 -0.953125 C 0.359375 -0.953125 0.304688 -0.96875 0.265625 -1 C 0.222656 -1.039062 0.203125 -1.101562 0.203125 -1.1875 C 0.203125 -1.269531 0.222656 -1.328125 0.265625 -1.359375 C 0.304688 -1.390625 0.359375 -1.40625 0.421875 -1.40625 C 0.472656 -1.40625 0.519531 -1.390625 0.5625 -1.359375 C 0.601562 -1.328125 0.625 -1.269531 0.625 -1.1875 C 0.625 -1.101562 0.601562 -1.039062 0.5625 -1 C 0.519531 -0.96875 0.472656 -0.953125 0.421875 -0.953125 Z "/>
</g>
<g id="glyph-0-6">
<path d="M 0.0625 0.796875 L 0.0625 0.65625 L 0.09375 0.65625 C 0.164062 0.65625 0.226562 0.640625 0.28125 0.609375 C 0.332031 0.585938 0.359375 0.523438 0.359375 0.421875 L 0.359375 -1.421875 C 0.359375 -1.515625 0.332031 -1.570312 0.28125 -1.59375 C 0.226562 -1.625 0.164062 -1.640625 0.09375 -1.640625 L 0.046875 -1.640625 L 0.046875 -1.78125 L 0.625 -1.78125 L 0.65625 -1.484375 L 0.671875 -1.484375 C 0.722656 -1.585938 0.785156 -1.664062 0.859375 -1.71875 C 0.941406 -1.78125 1.050781 -1.8125 1.1875 -1.8125 C 1.40625 -1.8125 1.570312 -1.738281 1.6875 -1.59375 C 1.800781 -1.445312 1.859375 -1.210938 1.859375 -0.890625 C 1.859375 -0.566406 1.800781 -0.332031 1.6875 -0.1875 C 1.570312 -0.0390625 1.40625 0.03125 1.1875 0.03125 C 1.050781 0.03125 0.941406 0.00390625 0.859375 -0.046875 C 0.785156 -0.0976562 0.722656 -0.171875 0.671875 -0.265625 L 0.65625 -0.265625 C 0.664062 -0.191406 0.671875 -0.117188 0.671875 -0.046875 C 0.671875 0.015625 0.671875 0.0664062 0.671875 0.109375 L 0.671875 0.4375 C 0.671875 0.53125 0.695312 0.585938 0.75 0.609375 C 0.800781 0.640625 0.863281 0.65625 0.9375 0.65625 L 0.953125 0.65625 L 0.953125 0.796875 Z M 1.125 -0.1875 C 1.269531 -0.1875 1.375 -0.242188 1.4375 -0.359375 C 1.5 -0.484375 1.53125 -0.664062 1.53125 -0.90625 C 1.53125 -1.132812 1.5 -1.304688 1.4375 -1.421875 C 1.375 -1.546875 1.269531 -1.609375 1.125 -1.609375 C 0.945312 -1.609375 0.828125 -1.546875 0.765625 -1.421875 C 0.703125 -1.304688 0.671875 -1.128906 0.671875 -0.890625 C 0.671875 -0.660156 0.703125 -0.484375 0.765625 -0.359375 C 0.828125 -0.242188 0.945312 -0.1875 1.125 -0.1875 Z "/>
</g>
<g id="glyph-0-7">
<path d="M -0.015625 0.46875 L -0.015625 0.28125 L 1.546875 0.28125 L 1.546875 0.46875 Z "/>
</g>
<g id="glyph-0-8">
<path d="M 0.9375 0.03125 C 0.789062 0.03125 0.660156 0 0.546875 -0.0625 C 0.429688 -0.125 0.34375 -0.222656 0.28125 -0.359375 C 0.21875 -0.492188 0.1875 -0.664062 0.1875 -0.875 C 0.1875 -1.113281 0.21875 -1.300781 0.28125 -1.4375 C 0.34375 -1.570312 0.429688 -1.664062 0.546875 -1.71875 C 0.660156 -1.78125 0.785156 -1.8125 0.921875 -1.8125 C 1.015625 -1.8125 1.101562 -1.800781 1.1875 -1.78125 C 1.28125 -1.757812 1.351562 -1.722656 1.40625 -1.671875 C 1.46875 -1.617188 1.5 -1.554688 1.5 -1.484375 C 1.5 -1.398438 1.472656 -1.34375 1.421875 -1.3125 C 1.378906 -1.28125 1.304688 -1.265625 1.203125 -1.265625 C 1.203125 -1.367188 1.179688 -1.457031 1.140625 -1.53125 C 1.109375 -1.613281 1.035156 -1.65625 0.921875 -1.65625 C 0.835938 -1.65625 0.765625 -1.628906 0.703125 -1.578125 C 0.640625 -1.535156 0.585938 -1.457031 0.546875 -1.34375 C 0.515625 -1.238281 0.5 -1.085938 0.5 -0.890625 C 0.5 -0.648438 0.535156 -0.472656 0.609375 -0.359375 C 0.691406 -0.242188 0.828125 -0.1875 1.015625 -0.1875 C 1.117188 -0.1875 1.207031 -0.207031 1.28125 -0.25 C 1.351562 -0.289062 1.410156 -0.347656 1.453125 -0.421875 C 1.484375 -0.390625 1.5 -0.34375 1.5 -0.28125 C 1.5 -0.226562 1.476562 -0.175781 1.4375 -0.125 C 1.394531 -0.0820312 1.332031 -0.046875 1.25 -0.015625 C 1.164062 0.015625 1.0625 0.03125 0.9375 0.03125 Z "/>
</g>
<g id="glyph-0-9">
<path d="M 0 0.40625 L 0.765625 -2.53125 L 0.953125 -2.53125 L 0.203125 0.40625 Z "/>
</g>
<g id="glyph-0-10">
<path d="M 0.421875 0.015625 C 0.359375 0.015625 0.304688 0 0.265625 -0.03125 C 0.222656 -0.0625 0.203125 -0.117188 0.203125 -0.203125 C 0.203125 -0.285156 0.222656 -0.34375 0.265625 -0.375 C 0.304688 -0.40625 0.359375 -0.421875 0.421875 -0.421875 C 0.472656 -0.421875 0.519531 -0.40625 0.5625 -0.375 C 0.601562 -0.34375 0.625 -0.285156 0.625 -0.203125 C 0.625 -0.117188 0.601562 -0.0625 0.5625 -0.03125 C 0.519531 0 0.472656 0.015625 0.421875 0.015625 Z "/>
</g>
<g id="glyph-0-11">
<path d="M 0.953125 0.03125 C 0.710938 0.03125 0.523438 -0.0390625 0.390625 -0.1875 C 0.253906 -0.34375 0.1875 -0.578125 0.1875 -0.890625 C 0.1875 -1.203125 0.25 -1.429688 0.375 -1.578125 C 0.507812 -1.734375 0.707031 -1.8125 0.96875 -1.8125 C 1.207031 -1.8125 1.394531 -1.734375 1.53125 -1.578125 C 1.664062 -1.429688 1.734375 -1.203125 1.734375 -0.890625 C 1.734375 -0.578125 1.664062 -0.34375 1.53125 -0.1875 C 1.40625 -0.0390625 1.210938 0.03125 0.953125 0.03125 Z M 0.96875 -0.140625 C 1.132812 -0.140625 1.25 -0.203125 1.3125 -0.328125 C 1.382812 -0.453125 1.421875 -0.640625 1.421875 -0.890625 C 1.421875 -1.140625 1.382812 -1.328125 1.3125 -1.453125 C 1.238281 -1.578125 1.117188 -1.640625 0.953125 -1.640625 C 0.785156 -1.640625 0.664062 -1.578125 0.59375 -1.453125 C 0.53125 -1.328125 0.5 -1.140625 0.5 -0.890625 C 0.5 -0.640625 0.535156 -0.453125 0.609375 -0.328125 C 0.679688 -0.203125 0.800781 -0.140625 0.96875 -0.140625 Z "/>
</g>
<g id="glyph-0-12">
<path d="M 0.046875 0 L 0.046875 -0.140625 L 0.09375 -0.140625 C 0.164062 -0.140625 0.226562 -0.148438 0.28125 -0.171875 C 0.332031 -0.203125 0.359375 -0.269531 0.359375 -0.375 L 0.359375 -2.15625 C 0.359375 -2.257812 0.332031 -2.320312 0.28125 -2.34375 C 0.226562 -2.375 0.164062 -2.390625 0.09375 -2.390625 L 0.046875 -2.390625 L 0.046875 -2.53125 L 0.671875 -2.53125 L 0.671875 -0.375 C 0.671875 -0.269531 0.695312 -0.203125 0.75 -0.171875 C 0.800781 -0.148438 0.863281 -0.140625 0.9375 -0.140625 L 0.984375 -0.140625 L 0.984375 0 Z "/>
</g>
<g id="glyph-0-13">
<path d="M 0.71875 0 L 0.71875 -0.140625 L 0.8125 -0.140625 C 0.882812 -0.140625 0.945312 -0.148438 1 -0.171875 C 1.050781 -0.203125 1.078125 -0.269531 1.078125 -0.375 L 1.078125 -0.65625 L 0.0625 -0.65625 L 0.0625 -0.78125 L 1.078125 -2.375 L 1.40625 -2.375 L 1.40625 -0.84375 L 1.8125 -0.84375 L 1.8125 -0.65625 L 1.40625 -0.65625 L 1.40625 -0.375 C 1.40625 -0.269531 1.429688 -0.203125 1.484375 -0.171875 C 1.535156 -0.148438 1.597656 -0.140625 1.671875 -0.140625 L 1.71875 -0.140625 L 1.71875 0 Z M 0.296875 -0.84375 L 1.078125 -0.84375 L 1.078125 -1.453125 C 1.078125 -1.515625 1.078125 -1.585938 1.078125 -1.671875 C 1.078125 -1.753906 1.078125 -1.835938 1.078125 -1.921875 C 1.085938 -2.003906 1.097656 -2.078125 1.109375 -2.140625 C 1.097656 -2.117188 1.078125 -2.085938 1.046875 -2.046875 C 1.023438 -2.003906 1 -1.957031 0.96875 -1.90625 C 0.9375 -1.851562 0.90625 -1.800781 0.875 -1.75 C 0.84375 -1.695312 0.820312 -1.65625 0.8125 -1.625 Z "/>
</g>
<g id="glyph-0-14">
<path d="M 0.96875 0.03125 C 0.820312 0.03125 0.691406 -0.0078125 0.578125 -0.09375 C 0.460938 -0.175781 0.367188 -0.304688 0.296875 -0.484375 C 0.234375 -0.671875 0.203125 -0.910156 0.203125 -1.203125 C 0.203125 -1.359375 0.21875 -1.507812 0.25 -1.65625 C 0.289062 -1.800781 0.34375 -1.929688 0.40625 -2.046875 C 0.476562 -2.160156 0.570312 -2.25 0.6875 -2.3125 C 0.800781 -2.375 0.929688 -2.40625 1.078125 -2.40625 C 1.253906 -2.40625 1.390625 -2.367188 1.484375 -2.296875 C 1.578125 -2.234375 1.625 -2.15625 1.625 -2.0625 C 1.625 -1.925781 1.535156 -1.859375 1.359375 -1.859375 C 1.359375 -1.972656 1.335938 -2.066406 1.296875 -2.140625 C 1.253906 -2.210938 1.179688 -2.25 1.078125 -2.25 C 0.910156 -2.25 0.78125 -2.164062 0.6875 -2 C 0.601562 -1.832031 0.554688 -1.585938 0.546875 -1.265625 C 0.597656 -1.316406 0.660156 -1.359375 0.734375 -1.390625 C 0.816406 -1.421875 0.910156 -1.4375 1.015625 -1.4375 C 1.222656 -1.4375 1.382812 -1.375 1.5 -1.25 C 1.625 -1.132812 1.6875 -0.972656 1.6875 -0.765625 C 1.6875 -0.609375 1.65625 -0.46875 1.59375 -0.34375 C 1.539062 -0.226562 1.460938 -0.132812 1.359375 -0.0625 C 1.253906 0 1.125 0.03125 0.96875 0.03125 Z M 0.984375 -0.15625 C 1.097656 -0.15625 1.1875 -0.195312 1.25 -0.28125 C 1.3125 -0.375 1.34375 -0.523438 1.34375 -0.734375 C 1.34375 -0.921875 1.304688 -1.054688 1.234375 -1.140625 C 1.171875 -1.234375 1.078125 -1.28125 0.953125 -1.28125 C 0.867188 -1.28125 0.789062 -1.257812 0.71875 -1.21875 C 0.644531 -1.175781 0.585938 -1.128906 0.546875 -1.078125 C 0.546875 -0.742188 0.582031 -0.503906 0.65625 -0.359375 C 0.738281 -0.222656 0.847656 -0.15625 0.984375 -0.15625 Z "/>
</g>
<g id="glyph-1-0">
<path d="M 2.4375 -1 L 2.4375 -0.75 C 2.332031 -0.65625 2.226562 -0.582031 2.125 -0.53125 C 2.03125 -0.488281 1.929688 -0.46875 1.828125 -0.46875 C 1.734375 -0.46875 1.59375 -0.503906 1.40625 -0.578125 C 1.394531 -0.578125 1.382812 -0.582031 1.375 -0.59375 C 1.363281 -0.59375 1.347656 -0.597656 1.328125 -0.609375 C 1.160156 -0.671875 1.023438 -0.703125 0.921875 -0.703125 C 0.828125 -0.703125 0.734375 -0.679688 0.640625 -0.640625 C 0.546875 -0.597656 0.453125 -0.535156 0.359375 -0.453125 L 0.359375 -0.703125 C 0.460938 -0.796875 0.5625 -0.863281 0.65625 -0.90625 C 0.757812 -0.957031 0.859375 -0.984375 0.953125 -0.984375 C 1.054688 -0.984375 1.203125 -0.945312 1.390625 -0.875 L 1.40625 -0.859375 C 1.425781 -0.859375 1.445312 -0.851562 1.46875 -0.84375 C 1.625 -0.78125 1.753906 -0.75 1.859375 -0.75 C 1.953125 -0.75 2.046875 -0.769531 2.140625 -0.8125 C 2.242188 -0.851562 2.34375 -0.914062 2.4375 -1 Z M 2.4375 -1.625 L 2.4375 -1.390625 C 2.332031 -1.296875 2.226562 -1.222656 2.125 -1.171875 C 2.03125 -1.128906 1.929688 -1.109375 1.828125 -1.109375 C 1.722656 -1.109375 1.578125 -1.144531 1.390625 -1.21875 L 1.375 -1.21875 C 1.363281 -1.226562 1.347656 -1.234375 1.328125 -1.234375 C 1.160156 -1.296875 1.023438 -1.328125 0.921875 -1.328125 C 0.828125 -1.328125 0.734375 -1.304688 0.640625 -1.265625 C 0.546875 -1.234375 0.453125 -1.175781 0.359375 -1.09375 L 0.359375 -1.328125 C 0.460938 -1.429688 0.5625 -1.503906 0.65625 -1.546875 C 0.757812 -1.585938 0.859375 -1.609375 0.953125 -1.609375 C 1.054688 -1.609375 1.203125 -1.570312 1.390625 -1.5 L 1.40625 -1.5 C 1.425781 -1.488281 1.445312 -1.484375 1.46875 -1.484375 C 1.625 -1.421875 1.753906 -1.390625 1.859375 -1.390625 C 1.953125 -1.390625 2.046875 -1.40625 2.140625 -1.4375 C 2.242188 -1.476562 2.34375 -1.539062 2.4375 -1.625 Z "/>
</g>
</g>
</defs>
<g fill="rgb(39.215686%, 45.490196%, 54.509804%)" fill-opacity="1">
<use xlink:href="#glyph-0-0" x="30" y="23.5625"/>
<use xlink:href="#glyph-0-1" x="32" y="23.5625"/>
<use xlink:href="#glyph-0-2" x="33" y="23.5625"/>
<use xlink:href="#glyph-0-1" x="35" y="23.5625"/>
<use xlink:href="#glyph-0-3" x="36" y="23.5625"/>
<use xlink:href="#glyph-0-4" x="38" y="23.5625"/>
<use xlink:href="#glyph-0-4" x="40" y="23.5625"/>
<use xlink:href="#glyph-0-1" x="42" y="23.5625"/>
<use xlink:href="#glyph-0-1" x="43" y="23.5625"/>
<use xlink:href="#glyph-0-1" x="44" y="23.5625"/>
<use xlink:href="#glyph-0-5" x="45" y="23.5625"/>
<use xlink:href="#glyph-0-1" x="46" y="23.5625"/>
<use xlink:href="#glyph-0-1" x="47" y="23.5625"/>
<use xlink:href="#glyph-0-1" x="48" y="23.5625"/>
<use xlink:href="#glyph-0-6" x="49" y="23.5625"/>
<use xlink:href="#glyph-0-7" x="51" y="23.5625"/>
<use xlink:href="#glyph-0-8" x="53" y="23.5625"/>
<use xlink:href="#glyph-0-1" x="55" y="23.5625"/>
<use xlink:href="#glyph-0-2" x="56" y="23.5625"/>
<use xlink:href="#glyph-0-1" x="58" y="23.5625"/>
<use xlink:href="#glyph-0-3" x="59" y="23.5625"/>
<use xlink:href="#glyph-0-9" x="61" y="23.5625"/>
<use xlink:href="#glyph-0-0" x="62" y="23.5625"/>
<use xlink:href="#glyph-0-1" x="64" y="23.5625"/>
</g>
<g fill="rgb(39.215686%, 45.490196%, 54.509804%)" fill-opacity="1">
<use xlink:href="#glyph-1-0" x="65" y="23.5625"/>
</g>
<g fill="rgb(39.215686%, 45.490196%, 54.509804%)" fill-opacity="1">
<use xlink:href="#glyph-0-1" x="68" y="23.5625"/>
<use xlink:href="#glyph-0-4" x="69" y="23.5625"/>
<use xlink:href="#glyph-0-10" x="71" y="23.5625"/>
<use xlink:href="#glyph-0-4" x="72" y="23.5625"/>
<use xlink:href="#glyph-0-3" x="74" y="23.5625"/>
<use xlink:href="#glyph-0-4" x="76" y="23.5625"/>
<use xlink:href="#glyph-0-4" x="78" y="23.5625"/>
<use xlink:href="#glyph-0-1" x="80" y="23.5625"/>
<use xlink:href="#glyph-0-1" x="81" y="23.5625"/>
<use xlink:href="#glyph-0-1" x="82" y="23.5625"/>
<use xlink:href="#glyph-0-5" x="83" y="23.5625"/>
<use xlink:href="#glyph-0-1" x="84" y="23.5625"/>
<use xlink:href="#glyph-0-1" x="85" y="23.5625"/>
<use xlink:href="#glyph-0-1" x="86" y="23.5625"/>
<use xlink:href="#glyph-0-6" x="87" y="23.5625"/>
<use xlink:href="#glyph-0-7" x="89" y="23.5625"/>
<use xlink:href="#glyph-0-8" x="91" y="23.5625"/>
<use xlink:href="#glyph-0-11" x="93" y="23.5625"/>
<use xlink:href="#glyph-0-0" x="95" y="23.5625"/>
<use xlink:href="#glyph-0-0" x="97" y="23.5625"/>
<use xlink:href="#glyph-0-1" x="99" y="23.5625"/>
<use xlink:href="#glyph-0-2" x="100" y="23.5625"/>
<use xlink:href="#glyph-0-1" x="102" y="23.5625"/>
<use xlink:href="#glyph-0-12" x="103" y="23.5625"/>
<use xlink:href="#glyph-0-0" x="104" y="23.5625"/>
<use xlink:href="#glyph-0-1" x="106" y="23.5625"/>
<use xlink:href="#glyph-0-0" x="107" y="23.5625"/>
<use xlink:href="#glyph-0-1" x="109" y="23.5625"/>
<use xlink:href="#glyph-0-9" x="110" y="23.5625"/>
<use xlink:href="#glyph-0-1" x="111" y="23.5625"/>
<use xlink:href="#glyph-0-0" x="112" y="23.5625"/>
<use xlink:href="#glyph-0-1" x="114" y="23.5625"/>
</g>
<g fill="rgb(39.215686%, 45.490196%, 54.509804%)" fill-opacity="1">
<use xlink:href="#glyph-1-0" x="115" y="23.5625"/>
</g>
<g fill="rgb(39.215686%, 45.490196%, 54.509804%)" fill-opacity="1">
<use xlink:href="#glyph-0-1" x="118" y="23.5625"/>
<use xlink:href="#glyph-0-4" x="119" y="23.5625"/>
<use xlink:href="#glyph-0-10" x="121" y="23.5625"/>
<use xlink:href="#glyph-0-4" x="122" y="23.5625"/>
<use xlink:href="#glyph-0-13" x="124" y="23.5625"/>
<use xlink:href="#glyph-0-14" x="126" y="23.5625"/>
<use xlink:href="#glyph-0-3" x="128" y="23.5625"/>
</g>
</svg>
