<?xml version="1.0" encoding="UTF-8"?>
<svg xmlns="http://www.w3.org/2000/svg" xmlns:xlink="http://www.w3.org/1999/xlink" width="1280" height="720" viewBox="0 0 1280 720">
<defs>
<g>
<g id="glyph-0-0">
<path d="M 0.046875 0.671875 L 0.046875 0.546875 L 0.078125 0.546875 C 0.140625 0.546875 0.191406 0.535156 0.234375 0.515625 C 0.273438 0.492188 0.296875 0.4375 0.296875 0.34375 L 0.296875 -1.1875 C 0.296875 -1.269531 0.273438 -1.320312 0.234375 -1.34375 C 0.191406 -1.363281 0.140625 -1.375 0.078125 -1.375 L 0.03125 -1.375 L 0.03125 -1.484375 L 0.515625 -1.484375 L 0.546875 -1.234375 L 0.5625 -1.234375 C 0.601562 -1.328125 0.65625 -1.394531 0.71875 -1.4375 C 0.789062 -1.488281 0.878906 -1.515625 0.984375 -1.515625 C 1.171875 -1.515625 1.3125 -1.453125 1.40625 -1.328125 C 1.5 -1.210938 1.546875 -1.019531 1.546875 -0.75 C 1.546875 -0.476562 1.5 -0.28125 1.40625 -0.15625 C 1.3125 -0.03125 1.171875 0.03125 0.984375 0.03125 C 0.878906 0.03125 0.789062 0.0078125 0.71875 -0.03125 C 0.65625 -0.0820312 0.601562 -0.144531 0.5625 -0.21875 L 0.546875 -0.21875 C 0.554688 -0.164062 0.5625 -0.109375 0.5625 -0.046875 C 0.5625 0.015625 0.5625 0.0625 0.5625 0.09375 L 0.5625 0.359375 C 0.5625 0.441406 0.582031 0.492188 0.625 0.515625 C 0.675781 0.535156 0.734375 0.546875 0.796875 0.546875 L 0.796875 0.671875 Z M 0.9375 -0.15625 C 1.0625 -0.15625 1.148438 -0.203125 1.203125 -0.296875 C 1.253906 -0.398438 1.28125 -0.550781 1.28125 -0.75 C 1.28125 -0.945312 1.253906 -1.09375 1.203125 -1.1875 C 1.148438 -1.289062 1.0625 -1.34375 0.9375 -1.34375 C 0.789062 -1.34375 0.691406 -1.289062 0.640625 -1.1875 C 0.585938 -1.09375 0.5625 -0.945312 0.5625 -0.75 C 0.5625 -0.550781 0.585938 -0.398438 0.640625 -0.296875 C 0.691406 -0.203125 0.789062 -0.15625 0.9375 -0.15625 Z "/>
</g>
<g id="glyph-0-1">
<path d="M -0.015625 0.390625 L -0.015625 0.234375 L 1.296875 0.234375 L 1.296875 0.390625 Z "/>
</g>
<g id="glyph-0-2">
<path d="M 0.78125 0.03125 C 0.664062 0.03125 0.554688 0.00390625 0.453125 -0.046875 C 0.359375 -0.0976562 0.285156 -0.179688 0.234375 -0.296875 C 0.179688 -0.410156 0.15625 -0.554688 0.15625 -0.734375 C 0.15625 -0.929688 0.179688 -1.085938 0.234375 -1.203125 C 0.285156 -1.316406 0.359375 -1.394531 0.453125 -1.4375 C 0.546875 -1.488281 0.648438 -1.515625 0.765625 -1.515625 C 0.847656 -1.515625 0.925781 -1.503906 1 -1.484375 C 1.070312 -1.460938 1.128906 -1.429688 1.171875 -1.390625 C 1.222656 -1.347656 1.25 -1.296875 1.25 -1.234375 C 1.25 -1.171875 1.226562 -1.125 1.1875 -1.09375 C 1.144531 -1.070312 1.085938 -1.0625 1.015625 -1.0625 C 1.015625 -1.144531 0.992188 -1.21875 0.953125 -1.28125 C 0.921875 -1.34375 0.859375 -1.375 0.765625 -1.375 C 0.703125 -1.375 0.644531 -1.351562 0.59375 -1.3125 C 0.539062 -1.28125 0.5 -1.21875 0.46875 -1.125 C 0.4375 -1.03125 0.421875 -0.898438 0.421875 -0.734375 C 0.421875 -0.535156 0.453125 -0.390625 0.515625 -0.296875 C 0.585938 -0.203125 0.695312 -0.15625 0.84375 -0.15625 C 0.925781 -0.15625 1 -0.171875 1.0625 -0.203125 C 1.132812 -0.242188 1.1875 -0.289062 1.21875 -0.34375 C 1.25 -0.320312 1.265625 -0.285156 1.265625 -0.234375 C 1.265625 -0.191406 1.242188 -0.148438 1.203125 -0.109375 C 1.171875 -0.0664062 1.117188 -0.03125 1.046875 0 C 0.984375 0.0195312 0.894531 0.03125 0.78125 0.03125 Z "/>
</g>
<g id="glyph-0-3">
</g>
<g id="glyph-0-4">
<path d="M 0.1875 -1.1875 L 0.1875 -1.34375 L 1.375 -1.34375 L 1.375 -1.1875 Z M 0.1875 -0.640625 L 0.1875 -0.796875 L 1.375 -0.796875 L 1.375 -0.640625 Z "/>
</g>
<g id="glyph-0-5">
<path d="M 0.265625 0 L 0.265625 -0.109375 L 0.453125 -0.109375 C 0.515625 -0.109375 0.566406 -0.117188 0.609375 -0.140625 C 0.660156 -0.171875 0.6875 -0.226562 0.6875 -0.3125 L 0.6875 -1.78125 C 0.613281 -1.695312 0.546875 -1.625 0.484375 -1.5625 C 0.429688 -1.507812 0.378906 -1.484375 0.328125 -1.484375 C 0.285156 -1.484375 0.25 -1.5 0.21875 -1.53125 C 0.195312 -1.5625 0.1875 -1.597656 0.1875 -1.640625 C 0.238281 -1.648438 0.296875 -1.671875 0.359375 -1.703125 C 0.421875 -1.734375 0.5 -1.785156 0.59375 -1.859375 L 0.78125 -2 L 0.96875 -2 L 0.96875 -0.3125 C 0.96875 -0.226562 0.988281 -0.171875 1.03125 -0.140625 C 1.070312 -0.117188 1.125 -0.109375 1.1875 -0.109375 L 1.328125 -0.109375 L 1.328125 0 Z "/>
</g>
<g id="glyph-0-6">
<path d="M 0 0.34375 L 0.640625 -2.109375 L 0.796875 -2.109375 L 0.171875 0.34375 Z "/>
</g>
<g id="glyph-0-7">
<path d="M 0.078125 0 L 0.078125 -0.109375 L 0.09375 -0.109375 C 0.15625 -0.109375 0.207031 -0.117188 0.25 -0.140625 C 0.300781 -0.171875 0.328125 -0.226562 0.328125 -0.3125 L 0.328125 -1.1875 C 0.328125 -1.269531 0.304688 -1.320312 0.265625 -1.34375 C 0.222656 -1.363281 0.171875 -1.375 0.109375 -1.375 L 0.09375 -1.375 L 0.09375 -1.484375 L 0.546875 -1.484375 L 0.578125 -1.265625 L 0.59375 -1.265625 C 0.644531 -1.367188 0.707031 -1.4375 0.78125 -1.46875 C 0.851562 -1.5 0.9375 -1.515625 1.03125 -1.515625 C 1.175781 -1.515625 1.289062 -1.472656 1.375 -1.390625 C 1.457031 -1.304688 1.5 -1.164062 1.5 -0.96875 L 1.5 -0.3125 C 1.5 -0.226562 1.515625 -0.171875 1.546875 -0.140625 C 1.585938 -0.117188 1.640625 -0.109375 1.703125 -0.109375 L 1.71875 -0.109375 L 1.71875 0 L 1.234375 0 L 1.234375 -0.953125 C 1.234375 -1.078125 1.207031 -1.171875 1.15625 -1.234375 C 1.113281 -1.304688 1.035156 -1.34375 0.921875 -1.34375 C 0.835938 -1.34375 0.769531 -1.320312 0.71875 -1.28125 C 0.675781 -1.238281 0.644531 -1.179688 0.625 -1.109375 C 0.601562 -1.046875 0.59375 -0.972656 0.59375 -0.890625 L 0.59375 -0.296875 C 0.59375 -0.222656 0.613281 -0.171875 0.65625 -0.140625 C 0.695312 -0.117188 0.75 -0.109375 0.8125 -0.109375 L 0.828125 -0.109375 L 0.828125 0 Z "/>
</g>
</g>
</defs>
<g fill="rgb(98.431373%, 74.901961%, 14.117647%)" fill-opacity="1">
<use xlink:href="#glyph-0-0" x="30" y="22.96875"/>
<use xlink:href="#glyph-0-1" x="32" y="22.96875"/>
<use xlink:href="#glyph-0-2" x="33" y="22.96875"/>
<use xlink:href="#glyph-0-3" x="34" y="22.96875"/>
<use xlink:href="#glyph-0-4" x="35" y="22.96875"/>
<use xlink:href="#glyph-0-3" x="37" y="22.96875"/>
<use xlink:href="#glyph-0-5" x="38" y="22.96875"/>
<use xlink:href="#glyph-0-6" x="40" y="22.96875"/>
<use xlink:href="#glyph-0-7" x="41" y="22.96875"/>
</g>
</svg>
